<?xml version="1.0" standalone="no"?>
<!DOCTYPE svg PUBLIC "-//W3C//DTD SVG 20010904//EN"
 "http://www.w3.org/TR/2001/REC-SVG-20010904/DTD/svg10.dtd">
<svg version="1.0" xmlns="http://www.w3.org/2000/svg"
 width="442.000000pt" height="670.000000pt" viewBox="0 0 442.000000 670.000000"
 preserveAspectRatio="xMidYMid meet">

<g transform="translate(0.000000,670.000000) scale(0.100000,-0.100000)"
fill="#000000" stroke="none">
<path d="M855 6659 c-227 -22 -539 -133 -638 -228 -68 -64 -82 -101 -82 -221
0 -95 3 -110 27 -155 35 -67 90 -118 163 -152 53 -25 71 -28 160 -28 114 0
152 15 217 82 52 54 78 115 78 190 0 72 11 108 39 122 10 6 69 21 130 33 109
21 113 21 207 5 122 -22 220 -63 308 -129 147 -110 203 -231 246 -528 69 -479
100 -1116 103 -2113 l2 -639 -23 -18 c-13 -11 -46 -21 -80 -24 -413 -43 -682
-116 -961 -263 -153 -80 -242 -144 -368 -267 -161 -156 -241 -279 -303 -464
-67 -202 -67 -461 1 -593 35 -70 75 -114 161 -179 102 -77 255 -152 383 -187
92 -26 114 -28 270 -27 155 0 178 3 258 27 117 36 286 122 383 195 102 77 243
224 321 335 64 90 171 294 213 402 29 75 50 98 90 98 53 0 61 -18 76 -170 51
-503 162 -841 377 -1157 77 -113 237 -280 341 -358 104 -78 257 -152 381 -184
86 -23 122 -27 255 -27 184 -1 258 15 404 90 75 39 108 64 191 147 158 159
205 273 205 503 0 161 -20 245 -93 398 -64 134 -137 233 -253 346 -111 106
-187 161 -334 237 -268 140 -565 222 -898 250 -75 7 -108 14 -120 26 -15 15
-17 53 -20 349 -3 390 -4 380 78 385 154 9 503 -43 685 -103 276 -90 437 -227
522 -445 62 -160 125 -230 207 -230 109 1 160 93 136 245 -22 140 -99 244
-269 365 -269 191 -496 248 -1072 268 -237 9 -261 15 -273 70 -17 77 84 1409
130 1711 46 306 196 550 436 711 118 79 260 130 371 134 57 1 82 -21 72 -64
-14 -58 -17 -189 -5 -225 17 -51 83 -121 145 -153 73 -38 210 -44 282 -12 69
29 151 116 199 211 34 67 38 83 42 170 6 127 -4 154 -84 229 -110 102 -276
171 -499 207 -123 20 -520 22 -674 4 -155 -18 -283 -54 -401 -112 -91 -45
-117 -63 -190 -138 -71 -71 -93 -103 -134 -186 -28 -55 -62 -114 -77 -131
l-26 -32 -11 52 c-6 28 -15 137 -21 241 -11 220 -35 332 -100 470 -59 126
-118 209 -218 306 -265 259 -626 370 -1068 328z m930 -4261 c-4 -178 -10 -326
-14 -329 -3 -4 -130 -12 -281 -18 -312 -13 -448 -28 -613 -70 -192 -49 -352
-122 -482 -222 -35 -27 -67 -49 -71 -49 -3 0 -3 28 1 63 22 202 109 373 267
523 134 127 294 209 578 293 175 53 446 110 613 130 5 1 6 -144 2 -321z m-65
-501 c0 -7 -27 -68 -60 -134 -66 -134 -188 -322 -274 -423 -214 -252 -521
-336 -672 -185 -51 52 -68 100 -61 176 14 154 143 298 372 412 193 96 445 161
638 166 41 1 57 -3 57 -12z m1187 -52 c403 -74 764 -204 925 -333 121 -96 229
-255 283 -417 35 -103 45 -264 22 -372 -51 -240 -237 -383 -497 -383 -270 0
-474 116 -633 361 -66 101 -99 167 -165 324 -60 144 -76 202 -97 360 -18 136
-44 466 -38 478 7 12 57 8 200 -18z"/>
</g>
</svg>
